{
    "asset": { "version": "2.0" },
    "scene": 0,
    "scenes": [{
        "nodes": [ 0 ]
    }],
    "nodes": [{
        "mesh": 0
    }],
    "materials": [{
        "doubleSided": true
    }],
    "meshes": [{
        "primitives": [{
            "attributes": {
                "POSITION": 0
            },
            "material": 0,
            "mode": 0
        }]
    }],
    "accessors": [{
        "bufferView": 0,
        "count": 1484,
        "componentType": 5126,
        "type": "VEC3",
        "max": [ 840.857666015625, 1233.525634765625, 961.2172241210938 ],
        "min": [ 424.48760986328125, 965.9181518554688, 639.3365478515625 ]
    }],
    "bufferViews": [{
        "buffer": 0,
        "byteLength": 47488,
        "byteOffset": 6527392,
        "byteStride": 32,
        "target": 34962
    }],
    "buffers": [{
        "uri": "./nz1.pgf.bin",
        "byteLength": 8957632
    }]
}