{
  "asset": { "version": "2.0" },
  "scene": 0,
  "scenes": [{
    "nodes": [ 0 ]
  }],
  "nodes": [{
    "mesh": 0
  }],
  "materials": [{
    "doubleSided": true
  }],
  "meshes": [{
    "primitives": [{
      "attributes": {
        "POSITION": 0
      },
      "material": 0,
      "mode": 0
    }, {
        "attributes": {
          "POSITION": 1
        },
        "material": 0,
        "mode": 0
      }]
  }],
  "accessors": [{
    "bufferView": 0,
    "byteOffset": 0,
    "count": 280,
    "componentType": 5126,
    "type": "VEC3",
    "max": [ 1.50003182888031, 0.04744036868214607, 5.228171348571777 ],
    "min": [ -0.49996817111968994, -1.099412202835083, -5.22811222076416 ]
  }, {
    "bufferView": 0,
    "byteOffset": 20,
    "count": 279,
    "componentType": 5126,
    "type": "VEC2",
    "max": [ 0.04744036868214607, 5.228171348571777 ],
    "min": [ -1.099412202835083, -5.22811222076416 ]
  }],
  "bufferViews": [{
    "buffer": 0,
    "byteLength": 6720,
    "byteOffset": 36120,
    "byteStride": 24,
    "target": 34962
  }],
  "buffers": [{
    "uri": "./prochallengering_easy.bin",
    "byteLength": 48104
  }]
}