{
    "asset": { "version": "2.0" },
    "scene": 0,
    "scenes": [{
      "nodes": [ 0 ]
    }],
    "cameras": [
        { "orthographic": {} }
    ],
    "nodes": [
      { "mesh": 0 }
    ],
    "materials": [{
      "doubleSided": false
    }],
    "meshes": [{
      "primitives": [{
        "attributes": {
          "POSITION": 0
        },
        "material": 0,
        "mode": 1
      }]
    }],
    "accessors": [{
      "bufferView": 0,
      "byteOffset": 0,
      "count": 3578,
      "componentType": 5126,
      "type": "VEC3",
      "max": [ 46.03642272949219, 1064.2666015625, 539.6731567382812 ],
      "min": [ -128.66383361816406, 1064.2666015625, 325.46392822265625 ]
    }],
    "bufferViews": [{
      "buffer": 0,
      "byteLength": 42936,
      "byteOffset": 0,
      "byteStride": 12,
      "target": 34962
    }],
    "buffers": [{
      "uri": "./off_9514156_just_verts.bin",
      "byteLength": 42936
    }]
  }