{
    "asset": { "version": "2.0" },
    "scene": 0,
    "scenes": [{ 
        "nodes": [ 0 ]
    }],
    "nodes": [{
        "mesh": 0
    }],
    "meshes": [{
        "primitives": [{
            "attributes": {
                "POSITION": 0
            },
            "mode": 3
        }, {
            "attributes": {
                "POSITION": 1
            },
            "mode": 3
        }, {
            "attributes": {
                "POSITION": 2
            },
            "mode": 3
        }, {
            "attributes": {
                "POSITION": 3
            },
            "mode": 3
        }, {
            "attributes": {
                "POSITION": 4
            },
            "mode": 3
        }, {
            "attributes": {
                "POSITION": 5
            },
            "mode": 3
        }, {
            "attributes": {
                "POSITION": 6
            },
            "mode": 3
        }, {
            "attributes": {
                "POSITION": 7
            },
            "mode": 3
        }, {
            "attributes": {
                "POSITION": 8
            },
            "mode": 3
        }, {
            "attributes": {
                "POSITION": 9
            },
            "mode": 3
        }, {
            "attributes": {
                "POSITION": 10
            },
            "mode": 3
        }, {
            "attributes": {
                "POSITION": 11
            },
            "mode": 3
        }, {
            "attributes": {
                "POSITION": 12
            },
            "mode": 3
        }, {
            "attributes": {
                "POSITION": 13
            },
            "mode": 3
        }, {
            "attributes": {
                "POSITION": 14
            },
            "mode": 3
        }]
    }],
    "accessors": [{
        "bufferView": 0,
        "byteOffset": 2988,
        "count": 3,
        "componentType": 5126,
        "type": "VEC3",
        "max": [517.0673828125, 1050.0875244140625, 855.658203125],
        "min": [508.7189025878906, 1047.1949462890625, 844.0171508789062]
    }, {
        "bufferView": 0,
        "byteOffset": 3072,
        "count": 3,
        "componentType": 5126,
        "type": "VEC3",
        "max": [579.381103515625, 1053.047119140625, 833.535400390625],
        "min": [569.1393432617188, 1049.174072265625, 823.8564453125]
    }, {
        "bufferView": 0,
        "byteOffset": 3156,
        "count": 13,
        "componentType": 5126,
        "type": "VEC3",
        "max": [639.408203125, 1085.643798828125, 911.654052734375],
        "min": [602.0413818359375, 1066.2857666015625, 892.956787109375]
    }, {
        "bufferView": 0,
        "byteOffset": 3600,
        "count": 45,
        "componentType": 5126,
        "type": "VEC3",
        "max": [882.3009033203125, 1369.2083740234375, 779.7661743164062],
        "min": [829.9669799804688, 1320.2264404296875, 768.3094482421875]
    }, {
        "bufferView": 0,
        "byteOffset": 5196,
        "count": 15,
        "componentType": 5126,
        "type": "VEC3",
        "max": [622.2948608398438, 1091.051513671875, 966.3179931640625],
        "min": [596.1950073242188, 1080.995849609375, 948.1355590820312]
    }, {
        "bufferView": 0,
        "byteOffset": 5712,
        "count": 24,
        "componentType": 5126,
        "type": "VEC3",
        "max": [802.0073852539062, 1157.5592041015625, 1018.3822021484375],
        "min": [760.9561157226562, 1133.6705322265625, 999.8571166992188]
    }, {
        "bufferView": 0,
        "byteOffset": 6552,
        "count": 36,
        "componentType": 5126,
        "type": "VEC3",
        "max": [876.9644775390625, 1208.1898193359375, 1038.937744140625],
        "min": [805.5392456054688, 1159.3778076171875, 1015.2247314453125]
    }, {
        "bufferView": 0,
        "byteOffset": 7824,
        "count": 25,
        "componentType": 5126,
        "type": "VEC3",
        "max": [784.8351440429688, 1152.950927734375, 1037.2265625],
        "min": [760.1324462890625, 1140.9456787109375, 1029.804443359375]
    }, {
        "bufferView": 0,
        "byteOffset": 8700,
        "count": 19,
        "componentType": 5126,
        "type": "VEC3",
        "max": [941.5203247070312, 1274.8148193359375, 1106.4251708984375],
        "min": [860.7218017578125, 1201.1646728515625, 1055.93359375]
    }, {
        "bufferView": 0,
        "byteOffset": 9360,
        "count": 42,
        "componentType": 5126,
        "type": "VEC3",
        "max": [731.5928344726562, 1259.3917236328125, 786.2769775390625],
        "min": [664.3224487304688, 1181.58984375, 756.5936889648438]
    }, {
        "bufferView": 0,
        "byteOffset": 10848,
        "count": 14,
        "componentType": 5126,
        "type": "VEC3",
        "max": [766.910888671875, 1297.6510009765625, 763.3824462890625],
        "min": [753.141357421875, 1281.0697021484375, 760.7791748046875]
    }, {
        "bufferView": 0,
        "byteOffset": 11328,
        "count": 8,
        "componentType": 5126,
        "type": "VEC3",
        "max": [821.7973022460938, 1313.5042724609375, 771.52685546875],
        "min": [815.5922241210938, 1312.2406005859375, 770.267578125]
    }, {
        "bufferView": 0,
        "byteOffset": 11592,
        "count": 14,
        "componentType": 5126,
        "type": "VEC3",
        "max": [813.9378051757812, 1312.019775390625, 771.8751220703125],
        "min": [803.949462890625, 1303.2176513671875, 762.7843017578125]
    }, {
        "bufferView": 0,
        "byteOffset": 12072,
        "count": 18,
        "componentType": 5126,
        "type": "VEC3",
        "max": [968.5789184570312, 1456.498779296875, 769.3702392578125],
        "min": [883.008056640625, 1368.409912109375, 756.5764770507812]
    }, {
        "bufferView": 0,
        "byteOffset": 12696,
        "count": 18,
        "componentType": 5126,
        "type": "VEC3",
        "max": [1113.2777099609375, 1576.89208984375, 758.1087036132812],
        "min": [1078.3519287109375, 1548.8953857421875, 750.6932373046875]
    }],
    "bufferViews": [{
        "buffer": 0,
        "byteLength": 34716,
        "byteOffset": 12,
        "byteStride": 12,
        "target": 34962
    }],
    "buffers": [{
        "uri": "./NZ1.rl.bin",
        "byteLength": 34728
    }]
}