{
    "asset": {
        "version": "2.0"
    },
    "scene": 0,
    "scenes": [{
        "nodes": [ 0 ]
    }],
    "nodes": [
        { "mesh": 0 }
    ],
    "materials": [{
        "doubleSided": false
    }],
    "meshes": [{ "name": "0", "primitives": [{ "attributes": { "POSITION": 1 }, "indices": 0, "mode": 4, "material": 0 }] }],
    "accessors": [
        { "bufferView": 0, "byteOffset": 0, "count": 831375, "componentType": 5125, "type": "SCALAR", "max": [ 146875 ], "min": [ 0 ] },
        { "bufferView": 1, "byteOffset": 0, "count": 146876, "componentType": 5126, "type": "VEC3", "max": [ 23708.087890625, 14466.1728515625, 23674.142578125], "min": [-23708.095703125, -6460.47509765625, -23674.142578125] }
    ],
    "bufferViews": [{
        "buffer": 0,
        "byteOffset": 0,
        "byteLength": 3325500,
        "target": 34963
    }, {
        "buffer": 0,
        "byteOffset": 3325500,
        "byteLength": 1762512,
        "target": 34962
    }],
    "buffers": [{
        "uri": "./au1.pgf_model_tris.bin",
        "byteLength": 5088012
    }]
}